<svg width="24" height="24" viewBox="0 0 24 24" fill="none" xmlns="http://www.w3.org/2000/svg">
<path d="M18.5027 6.9511L16.1369 3.79669C15.4998 2.94716 14.31 2.74335 13.4264 3.33239L7.92816 6.99788" stroke="white" stroke-width="1.5" stroke-linecap="round" stroke-linejoin="round"/>
<path fill-rule="evenodd" clip-rule="evenodd" d="M18.5027 11.4998H21.0037C21.5562 11.4998 22.0041 11.9477 22.0041 12.5002V15.5014C22.0041 16.0539 21.5562 16.5018 21.0037 16.5018H18.5027C17.1214 16.5018 16.0016 15.3821 16.0016 14.0008V14.0008C16.0016 12.6195 17.1214 11.4998 18.5027 11.4998V11.4998Z" stroke="white" stroke-width="1.5" stroke-linecap="round" stroke-linejoin="round"/>
<path d="M21.0037 11.4998V9.49897C21.0037 8.11768 19.884 6.99792 18.5027 6.99792H5.49726C4.11597 6.99792 2.99622 8.11768 2.99622 9.49897V18.5027C2.99622 19.884 4.11597 21.0038 5.49726 21.0038H18.5027C19.884 21.0038 21.0037 19.884 21.0037 18.5027V16.5019" stroke="white" stroke-width="1.5" stroke-linecap="round" stroke-linejoin="round"/>
</svg>
